HIERARCHY
ROOT Hips
{
    OFFSET 0.000000 0.000000 0.000000
    CHANNELS 6 Xposition Yposition Zposition Zrotation Xrotation Yrotation
    JOINT Spine
    {
        OFFSET -0.000000 7.871866 0.000000
        CHANNELS 3 Zrotation Xrotation Yrotation
        JOINT Spine1
        {
            OFFSET -0.000000 20.477478 0.000000
            CHANNELS 3 Zrotation Xrotation Yrotation
            JOINT Neck
            {
                OFFSET -0.000000 20.393381 1.853944
                CHANNELS 3 Zrotation Xrotation Yrotation
                JOINT Head
                {
                    OFFSET -0.000000 13.439772 -1.919967
                    CHANNELS 3 Zrotation Xrotation Yrotation
                    End Site
                    {
                        OFFSET -0.000000 23.999592 0.000000
                    }
                }
            }
            JOINT LeftShoulder
            {
                OFFSET 3.872530 18.410604 -0.225466
                CHANNELS 3 Zrotation Xrotation Yrotation
                JOINT LeftArm
                {
                    OFFSET 11.402711 0.000000 0.000000
                    CHANNELS 3 Zrotation Xrotation Yrotation
                    JOINT LeftForeArm
                    {
                        OFFSET 30.885973 0.000000 0.000000
                        CHANNELS 3 Zrotation Xrotation Yrotation
                        JOINT LeftHand
                        {
                            OFFSET 25.505432 0.000000 0.000000
                            CHANNELS 3 Zrotation Xrotation Yrotation
                            End Site
                            {
                                OFFSET 14.399755 0.000000 0.000000
                            }
                        }
                    }
                }
            }
            JOINT RightShoulder
            {
                OFFSET -3.749425 18.410604 -0.225466
                CHANNELS 3 Zrotation Xrotation Yrotation
                JOINT RightArm
                {
                    OFFSET -11.402711 0.000000 0.000000
                    CHANNELS 3 Zrotation Xrotation Yrotation
                    JOINT RightForeArm
                    {
                        OFFSET -30.885973 0.000000 0.000000
                        CHANNELS 3 Zrotation Xrotation Yrotation
                        JOINT RightHand
                        {
                            OFFSET -25.505432 0.000000 0.000000
                            CHANNELS 3 Zrotation Xrotation Yrotation
                            End Site
                            {
                                OFFSET -14.399755 0.000000 0.000000
                            }
                        }
                    }
                }
            }
        }
    }
    JOINT LeftUpLeg
    {
        OFFSET 9.599837 0.000000 0.000000
        CHANNELS 3 Zrotation Xrotation Yrotation
        JOINT LeftLeg
        {
            OFFSET -0.000000 -39.304852 0.000000
            CHANNELS 3 Zrotation Xrotation Yrotation
            JOINT LeftFoot
            {
                OFFSET -0.000000 -46.901295 0.000000
                CHANNELS 3 Zrotation Xrotation Yrotation
                JOINT LeftToeBase
                {
                    OFFSET -0.000000 -6.239893 14.399755
                    CHANNELS 3 Zrotation Xrotation Yrotation
                    End Site
                    {
                        OFFSET -0.000000 0.000000 3.839935
                    }
                }
            }
        }
    }
    JOINT RightUpLeg
    {
        OFFSET -9.599837 0.000000 0.000000
        CHANNELS 3 Zrotation Xrotation Yrotation
        JOINT RightLeg
        {
            OFFSET -0.000000 -39.304852 0.000000
            CHANNELS 3 Zrotation Xrotation Yrotation
            JOINT RightFoot
            {
                OFFSET -0.000000 -46.901295 0.000000
                CHANNELS 3 Zrotation Xrotation Yrotation
                JOINT RightToeBase
                {
                    OFFSET -0.000000 -6.239893 14.399755
                    CHANNELS 3 Zrotation Xrotation Yrotation
                    End Site
                    {
                        OFFSET -0.000000 0.000000 3.839935
                    }
                }
            }
        }
    }
}
MOTION
Frames:    11
Frame Time:    0.008333
-66.541985    87.206207    9.106100    -9.170838    -3.985459    -153.895020    -5.680706    -0.085988    3.231567    -1.899305    -0.247276    3.231699    -0.237967    29.961809    -14.489231    21.541357    -8.728567    -10.477638    9.924070    4.951206    -7.674906    -69.022552    48.864891    -12.981602    -3.293673    -5.157573    -14.641543    7.394568    -5.467840    1.730966    -3.156640    6.455893    -5.314950    62.130962    60.770489    12.207196    -13.051303    -12.956697    48.437111    -0.425516    -7.138775    -2.631649    -3.915306    -30.134705    -10.225491    2.789355    14.587461    -15.025912    -11.205482    0.735261    3.928337    0.000000    0.000000    0.000000    4.537167    14.711003    4.509185    0.297718    21.424959    12.689473    -6.766771    -9.740040    -5.288044    0.000000    0.000000    0.000000    
-67.221687    87.076744    7.908487    -9.236984    -3.688313    -154.662262    -5.813566    -0.386621    3.172234    -1.721567    0.037390    3.192393    -0.194122    30.115505    -14.526316    21.511971    -8.783392    -10.507389    9.872115    4.978227    -7.626339    -69.115120    49.161034    -13.037847    -3.305589    -5.358436    -14.053660    7.262392    -5.647284    1.852704    -3.201846    6.488553    -5.549720    62.535339    60.728565    11.713994    -12.616355    -12.784698    48.544876    -0.779220    -7.138252    -2.667152    -4.139861    -29.988867    -10.349818    3.609620    15.721020    -14.844853    -10.691077    2.589345    0.745902    0.000000    0.000000    0.000000    4.219116    14.613633    3.552429    0.131830    23.290304    12.168167    -9.557819    -5.513691    5.449786    0.000000    0.000000    0.000000    
-67.545868    86.644157    6.993173    -7.863902    -4.300946    -155.197113    -5.241245    -1.514445    2.953460    -1.399181    -0.265550    3.019549    -0.073875    30.319658    -14.591485    21.577398    -8.941179    -10.515979    9.865426    4.925129    -7.593675    -69.523827    49.178532    -12.707447    -3.321805    -5.355493    -13.684093    7.267763    -5.619601    2.102965    -3.318051    6.370364    -5.716650    63.393742    60.559502    10.806155    -12.075157    -12.441653    48.553257    -1.163031    -7.025973    -2.581085    -2.941668    -32.216579    -11.863056    3.046881    18.054171    -13.526906    -11.572544    1.542183    -1.594213    0.000000    0.000000    0.000000    5.189929    12.434875    2.150820    -0.683242    26.017559    11.959810    -8.556977    -4.834010    8.294064    0.000000    0.000000    0.000000    
-68.177567    86.558884    5.841421    -8.016966    -3.971972    -155.945816    -5.406477    -1.532123    2.897315    -1.303628    -0.181239    2.967619    -0.136818    30.479189    -14.604478    21.975861    -8.939315    -10.450791    9.758128    4.935496    -7.660822    -69.777954    49.148094    -12.403383    -3.467867    -4.636915    -13.065429    7.709765    -4.931078    1.517399    -3.289115    6.321154    -5.986400    63.918770    60.422653    10.163544    -11.536680    -12.062652    48.386421    -1.527608    -6.898435    -2.487352    -2.939591    -32.477459    -14.288503    2.213929    20.444023    -11.900822    -11.717854    0.812224    -3.033572    0.000000    0.000000    0.000000    4.749628    11.906655    1.253473    -0.955068    28.631500    11.207370    -2.402830    -4.687109    0.725669    0.000000    0.000000    0.000000    
-68.761673    86.506691    4.744350    -8.199656    -3.712747    -156.691025    -5.678118    -1.485331    2.787090    -1.133353    -0.118967    2.859597    -0.415818    30.438335    -14.548873    22.494471    -8.700098    -10.362661    9.592957    4.870114    -7.589622    -70.049454    48.998421    -12.055877    -3.624109    -4.569572    -12.760541    7.978349    -4.855312    1.704293    -3.366010    6.269056    -6.268326    64.315559    60.267403    9.794385    -10.922030    -11.628217    48.067883    -1.973742    -6.763207    -2.405962    -3.150500    -32.806778    -16.931921    1.289663    23.070253    -9.993191    -11.712528    0.470265    -3.464259    0.000000    0.000000    0.000000    4.138551    11.153869    0.647945    -0.895626    31.225838    9.725577    -0.522774    -1.829715    2.607291    0.000000    0.000000    0.000000    
-69.297966    86.511810    3.619253    -8.436749    -3.462158    -157.427994    -6.082728    -1.496154    2.674984    -0.967242    0.067322    2.755032    -0.441048    30.229733    -14.565976    22.669544    -8.303486    -10.421765    9.588620    4.792129    -7.554236    -70.320084    48.828396    -11.811864    -3.800958    -4.555133    -12.498941    8.295770    -4.818358    2.102472    -3.298788    6.290276    -6.531820    64.465485    59.983208    9.639358    -10.260689    -11.111446    47.656830    -2.552208    -6.567423    -2.407286    -3.390387    -32.950108    -18.927689    0.495456    25.462151    -8.790070    -11.467402    -0.137974    -1.975625    0.000000    0.000000    0.000000    3.488252    10.206238    0.609318    -0.517422    34.059994    7.204289    1.728401    2.146708    13.945225    0.000000    0.000000    0.000000    
-69.797012    86.538460    2.563941    -8.739982    -3.271646    -158.215805    -6.625040    -1.399173    2.617783    -0.691708    0.090949    2.699296    -0.412747    30.068958    -14.640201    22.637146    -7.970096    -10.567002    9.566634    4.786580    -7.668846    -70.517738    48.808098    -11.688313    -3.913120    -4.664739    -12.210672    8.596519    -4.897662    2.463545    -3.330636    6.408868    -6.814196    64.666847    60.104855    9.664814    -10.088935    -11.020387    46.678200    -2.623459    -6.659380    -2.089461    -3.584914    -32.962418    -20.686619    -0.533416    27.340971    -7.019607    -10.957496    -1.899639    0.655089    0.000000    0.000000    0.000000    2.675464    9.166154    1.743341    0.622074    36.907295    4.064847    2.414450    6.845052    17.189045    0.000000    0.000000    0.000000    
-70.285019    86.579666    1.463013    -9.074589    -2.981347    -159.117081    -7.117486    -1.091715    2.552153    -0.560126    -0.122899    2.619417    -0.186727    30.124126    -14.658372    22.335930    -7.867391    -10.639050    9.679679    4.885056    -7.850194    -70.859787    48.508034    -11.426046    -4.046094    -4.655289    -11.954406    8.845847    -4.863969    2.773967    -3.263397    6.625366    -6.932766    64.859116    59.706402    9.542029    -9.432622    -10.483298    46.021355    -3.094621    -6.454931    -2.102735    -3.522948    -32.659496    -21.828474    -2.280668    27.517643    -6.018367    -1.429523    -5.388727    3.694500    0.000000    0.000000    0.000000    1.814540    7.999381    2.315337    1.842071    39.692371    0.557354    3.908297    11.922754    20.213469    0.000000    0.000000    0.000000    
-70.714485    86.616394    0.420755    -9.393310    -2.593430    -160.064117    -7.581496    -0.648968    2.566592    -0.337044    -0.380274    2.608433    -0.063337    30.235661    -14.684809    22.036230    -7.935588    -10.700732    9.688995    4.988012    -8.036365    -71.036713    48.545166    -11.284164    -3.939684    -4.566667    -11.735230    8.681488    -4.741295    3.029639    -3.215718    6.819686    -7.157528    64.910141    59.043091    9.535754    -8.530479    -9.649372    45.421696    -3.680496    -6.034678    -2.217682    -3.010420    -32.075390    -22.126318    -3.526256    28.195080    -5.868154    -1.815731    -6.249297    2.976877    0.000000    0.000000    0.000000    1.052886    6.918761    2.425525    2.462566    42.660313    -0.706403    4.949866    14.634895    21.298820    0.000000    0.000000    0.000000    
-71.149864    86.667618    -0.565832    -9.846299    -2.223944    -161.161484    -8.007304    -0.145694    2.612501    -0.376772    -0.664447    2.620468    0.131633    30.424688    -14.648298    21.698637    -8.176595    -10.661909    9.801228    5.099554    -8.228692    -71.188507    48.644028    -11.152225    -3.842018    -4.672579    -11.535618    8.640482    -4.812327    3.284255    -3.167883    7.006586    -7.174071    65.226364    58.813339    9.455637    -8.196967    -9.319596    44.447369    -3.940149    -5.910844    -2.433857    -2.544349    -31.323637    -21.395353    -4.517045    28.788008    -7.009856    -2.008247    -7.247747    3.858951    0.000000    0.000000    0.000000    0.109370    5.698238    2.839691    3.147083    45.900051    -0.644785    5.013133    14.823049    21.055105    0.000000    0.000000    0.000000    
-71.584557    86.754425    -1.524168    -10.375362    -1.976892    -162.208832    -8.513723    0.335920    2.615697    -0.464778    -1.005583    2.586558    0.425724    30.545637    -14.631393    21.198383    -8.373527    -10.673655    9.901854    5.217002    -8.399186    -71.211800    48.900269    -11.124569    -3.728501    -4.792987    -11.339429    8.549934    -4.904265    3.461194    -3.076129    7.121190    -7.159160    65.952759    59.439472    9.051540    -8.913007    -9.708968    42.992416    -3.674167    -6.140768    -2.638290    -2.320862    -30.517353    -19.858391    -4.268992    29.619152    -8.732451    -2.186452    -8.559424    5.315470    0.000000    0.000000    0.000000    -0.915587    4.212567    3.150367    3.799395    49.266884    0.089941    7.462213    13.000566    9.248959    0.000000    0.000000    0.000000    
